<svg width="22" height="18" viewBox="0 0 22 18" fill="none" xmlns="http://www.w3.org/2000/svg">
<path d="M4.33331 17V2.40267C4.33322 2.09243 4.43617 1.79095 4.62601 1.54558C4.81584 1.30021 5.0818 1.12483 5.38211 1.04701C5.68242 0.969185 6.00008 0.993314 6.28519 1.11561C6.57031 1.2379 6.80672 1.45143 6.95731 1.72267L15.0426 16.2773C15.1932 16.5486 15.4297 16.7621 15.7148 16.8844C15.9999 17.0067 16.3175 17.0308 16.6179 16.953C16.9182 16.8752 17.1841 16.6998 17.374 16.4544C17.5638 16.209 17.6667 15.9076 17.6666 15.5973V1" stroke="#263238" stroke-opacity="0.4" stroke-width="2" stroke-linecap="round" stroke-linejoin="round"/>
<path d="M1.66666 6.33325H20.3333" stroke="#263238" stroke-opacity="0.4" stroke-width="2" stroke-linecap="round" stroke-linejoin="round"/>
<path d="M1.66666 11.6667H20.3333" stroke="#263238" stroke-opacity="0.4" stroke-width="2" stroke-linecap="round" stroke-linejoin="round"/>
</svg>
