<?xml version="1.0" encoding="utf-8"?>
<!-- Generator: Adobe Illustrator 19.0.0, SVG Export Plug-In . SVG Version: 6.00 Build 0)  -->
<svg version="1.1" id="Layer_1" xmlns="http://www.w3.org/2000/svg" xmlns:xlink="http://www.w3.org/1999/xlink" x="0px" y="0px"
	 width="100px" height="100px" viewBox="0 0 100 100" style="enable-background:new 0 0 100 100;" xml:space="preserve">
<style type="text/css">
	.st0{fill:none;stroke:#000000;stroke-width:4.3562;stroke-miterlimit:10;}
	.st1{fill-rule:evenodd;clip-rule:evenodd;fill:none;stroke:#000000;stroke-width:5;stroke-miterlimit:10;}
</style>
<g id="XMLID_2_">
	<path id="XMLID_3_" class="st0" d="M90.8,27"/>
</g>
<path id="XMLID_11_" d="M97,19.3L97,19.3c-0.4-0.2-0.7-0.4-1.1-0.6c0.5-1.4,0.5-2.5,0.4-3c-0.1-1.7-1.1-3.1-2.6-3.8
	c-1.5-0.7-3.3-0.6-4.7,0.4c-2.8,2-5.6,2.7-7.7,2.9c-4-3.4-9.1-5.3-14.5-5.3c-12.3,0-22.3,9.9-22.5,22.2c-16-1.9-28.7-16.7-28.9-16.9
	c-1-1.1-2.4-1.8-3.9-1.6c-1.5,0.1-2.8,1-3.6,2.3C3.3,24,4.8,31.3,6.9,36.2c-1.1,0.8-1.8,2.2-1.8,3.6C4.9,48,8.2,53.3,11.6,56.5
	c-0.4,1-0.4,2-0.1,3c2.1,6.7,6.2,10.5,10,12.7c-6.6,2.4-13.9,1.5-15,1.3l0,0c-0.1,0-0.1,0-0.2,0l0,0c-2-0.2-3.9,0.8-4.8,2.7
	c-0.9,2-0.3,4.2,1.5,5.5C13,89.4,25.2,91,33.6,91c5.9,0,10.2-0.8,11.4-1l0.1,0c41.1-9.6,44.5-45,44.6-54.6c5.3-5,8.5-8.8,9.1-11
	C99.4,22.5,98.6,20.4,97,19.3z M85.6,32.4l-0.8,0.8l0,1.1C84.8,41.1,83.2,76,44,85.1C43,85.3,39,86,33.6,86
	c-7.3,0-17.7-1.3-26.4-7.3c4,0.4,14,0.7,21.6-4.7l4.3-3.1L28,69.5c-4-1.1-9.2-3.9-11.6-11.1l3.8-1.5l-3.6-2.7
	c-4.3-3.3-6.5-7.9-6.6-13.7l7.5,4l-4.7-7.8c-2.5-4.2-4.7-10.6-0.7-17.8c2.5,2.8,17,18,34.9,18.4l2.9,0.1l-0.4-2.9
	c-0.1-0.6-0.1-1.3-0.1-2.1c0-9.6,7.8-17.5,17.5-17.5c4.4,0,8.7,1.7,11.9,4.7l0.8,0.7l1,0c2.7-0.1,6.6-0.8,10.7-3.4
	c-0.2,0.8-0.7,2.1-2.2,3.9l-5.3,6.6l8-2.6c0.6-0.2,1.1-0.4,1.5-0.6C92.4,25.5,90.3,28.1,85.6,32.4z"/>
<path id="XMLID_5_" class="st1" d="M86.3,30.4"/>
</svg>
