<svg width="15" height="26" viewBox="0 0 15 26" fill="none" xmlns="http://www.w3.org/2000/svg">
<path d="M14.778 17.515C14.778 12.9 10.998 12.374 7.961 11.952C4.651 11.492 2.778 11.092 2.778 8.242C2.778 5.85 5.285 5 7.432 5C8.50195 4.96544 9.56479 5.18569 10.5329 5.64262C11.501 6.09954 12.3466 6.78004 13 7.628L14.556 6.372C13.8563 5.47217 12.9856 4.71952 11.994 4.1573C11.0024 3.59509 9.90945 3.23441 8.778 3.096V0H6.778V3.022C3.163 3.242 0.778 5.282 0.778 8.242C0.778 12.972 4.608 13.505 7.685 13.932C10.938 14.385 12.778 14.774 12.778 17.515C12.778 20.547 9.645 21 7.778 21C4.348 21 2.9 20.036 1.556 18.372L0 19.628C0.792761 20.6727 1.81811 21.5182 2.99467 22.0975C4.17123 22.6767 5.46661 22.9737 6.778 22.965V26H8.778V22.955C12.504 22.651 14.778 20.628 14.778 17.515Z" fill="white"/>
</svg>
